<svg viewBox="0 0 640 400" data-background-color="transparent" preserveAspectRatio="xMidYMid meet" height="400" width="640" xmlns="http://www.w3.org/2000/svg" xmlns:xlink="http://www.w3.org/1999/xlink"><rect width="640" height="400" x="0" y="0" opacity="1" fill="transparent" data-fill-palette-color="background" id="background"></rect><g id="tight-bounds" transform="matrix(1,0,0,1,122.24000000000004,153.35259294720444)"><svg viewBox="0 0 395.5199999999999 93.2948141055911" height="93.2948141055911" width="395.5199999999999"><g><svg viewBox="0 0 551.6901642800486 130.13205734321946" height="93.2948141055911" width="395.5199999999999"><g transform="matrix(1,0,0,1,156.17016428004865,37.492167990272804)"><svg viewBox="0 0 395.52 55.14772136267385" height="55.14772136267385" width="395.52"><g><svg viewBox="0 0 395.52 55.14772136267385" height="55.14772136267385" width="395.52"><g><svg viewBox="0 0 395.52 55.14772136267385" height="55.14772136267385" width="395.52"><g transform="matrix(1,0,0,1,0,0)"><svg width="395.52" viewBox="3.740476131439209 -36.35769271850586 263.96990966796875 36.81638717651367" height="55.14772136267385" data-palette-color="#0718c4"><path d="M39.3-3.35L39.3-3.35Q39.25-1.9 38.2-0.9 37.15 0.1 35.7 0.05 34.25 0 33.25-1.05 32.25-2.1 32.3-3.55L32.3-3.55Q32.4-6.8 32.2-22.75L32.2-22.75Q28.5-18.1 24.9-12.8L24.9-12.8Q24.05-11.6 22.65-11.33 21.25-11.05 20.05-11.85L20.05-11.85Q19.9-11.95 19.8-12.05L19.8-12.05Q19.25-12.4 18.85-12.9L18.85-12.9 11.15-22.6Q11.2-22.5 11.18-13.03 11.15-3.55 11.15-3.5L11.15-3.5Q11.15-2.05 10.13-1.03 9.1 0 7.65 0 6.2 0 5.18-1.03 4.15-2.05 4.15-3.5L4.15-3.5Q4.15-5.6 4.17-10.55 4.2-15.5 4.2-18.2 4.2-20.9 4.1-24.9L4.1-24.9Q4-28.45 3.75-32.25L3.75-32.25Q3.65-33.7 4.6-34.8 5.55-35.9 7-36L7-36Q7.75-36.05 8.4-35.8L8.4-35.8Q9.8-35.6 10.65-34.45L10.65-34.45 21.75-20.5Q27.15-28 32.75-34L32.75-34Q33.8-35.8 35.85-35.75L35.85-35.75Q37.3-35.7 38.3-34.65 39.3-33.6 39.25-32.15L39.25-32.15Q39.1-27.4 39.25-17.63 39.4-7.85 39.3-3.35L39.3-3.35ZM70.75 0.05L70.75 0.05Q63.35 0.05 50.55-0.1L50.55-0.1Q49.55-0.1 48.72-0.68 47.9-1.25 47.5-2.1L47.5-2.1Q46.9-3 46.9-4.05L46.9-4.05Q46.95-5.8 46.85-18.15L46.85-18.15Q46.8-27.15 47.3-32.3L47.3-32.3Q47.35-32.95 47.6-33.5L47.6-33.5Q48-34.5 48.85-35.13 49.7-35.75 50.8-35.8L50.8-35.8Q54.45-35.85 60.65-35.83 66.85-35.8 70.5-35.85L70.5-35.85Q71.95-35.85 72.97-34.85 74-33.85 74-32.43 74-31 73.02-29.98 72.05-28.95 70.6-28.95L70.6-28.95Q67.8-28.95 62.25-28.98 56.7-29 53.9-28.95L53.9-28.95Q53.75-25.9 53.7-21.75L53.7-21.75Q56.1-21.8 68.5-21.8L68.5-21.8Q69.95-21.8 70.97-20.8 72-19.8 72-18.38 72-16.95 70.97-15.93 69.95-14.9 68.5-14.9L68.5-14.9Q56.05-14.9 53.75-14.85L53.75-14.85Q53.85-9.25 53.8-6.95L53.8-6.95Q63.95-6.85 70.75-6.85L70.75-6.85Q72.2-6.85 73.2-5.85 74.2-4.85 74.2-3.4 74.2-1.95 73.2-0.95 72.2 0.05 70.75 0.05L70.75 0.05ZM107.05-5.75L107.05-5.75Q104.64-2.85 101.5-1.38 98.34 0.1 95.14 0.08 91.94 0.05 88.84-1.05 85.75-2.15 83.19-4.4 80.64-6.65 79.14-9.6L79.14-9.6Q77.25-13.25 77.19-17.23 77.14-21.2 78.59-24.5L78.59-24.5Q80-27.85 82.59-30.45L82.59-30.45Q85.25-33.15 88.5-34.55L88.5-34.55Q91.8-36 95.8-35.85 99.8-35.7 103.5-33.5L103.5-33.5Q104.5-33 105.27-32.38 106.05-31.75 106.75-31 107.44-30.25 107.8-29.83 108.15-29.4 108.84-28.45 109.55-27.5 109.75-27.25L109.75-27.25Q110.59-26.1 110.4-24.68 110.19-23.25 109.05-22.4 107.9-21.55 106.5-21.75 105.09-21.95 104.19-23.1L104.19-23.1 103.19-24.4 102.39-25.5Q102.19-25.8 101.77-26.25 101.34-26.7 100.97-26.98 100.59-27.25 100.05-27.6L100.05-27.6Q96.55-29.4 93.3-28.83 90.05-28.25 87.55-25.65L87.55-25.65Q84.94-23.05 84.3-19.63 83.64-16.2 85.25-12.8L85.25-12.8Q86.89-9.55 89.97-8 93.05-6.45 96.3-7.03 99.55-7.6 101.69-10.2L101.69-10.2Q102.69-11.35 102.84-12.05L102.84-12.05Q102.94-12.4 103-12.7L103-12.7Q101.55-12.75 97.5-12.55L97.5-12.55Q96.05-12.5 95-13.45 93.94-14.4 93.89-15.85 93.84-17.3 94.8-18.35 95.75-19.4 97.19-19.45L97.19-19.45Q101.25-19.6 106.34-19.6L106.34-19.6Q107.8-19.6 108.84-18.55L108.84-18.55Q109.94-17.5 109.9-15.95L109.9-15.95 109.9-14.8Q109.94-13.6 109.87-12.43 109.8-11.25 109.59-10.35L109.59-10.35Q109-8.1 107.05-5.75L107.05-5.75ZM112.84-2.05L112.84-2.05Q112.24-3.4 112.79-4.7L112.79-4.7 123.99-33.55Q124.39-34.5 125.24-35.1 126.09-35.7 127.14-35.75L127.14-35.75Q128.24-35.95 129.32-35.38 130.39-34.8 130.94-33.75L130.94-33.75 134.64-24.55 138.99-13.8 142.44-4.8Q142.99-3.45 142.42-2.13 141.84-0.8 140.47-0.25 139.09 0.3 137.74-0.28 136.39-0.85 135.84-2.15L135.84-2.15 132.94-8.75Q127.34-8.9 121.84-8.65L121.84-8.65 119.39-2.05Q118.79-0.75 117.44-0.18 116.09 0.4 114.74-0.18 113.39-0.75 112.84-2.05L112.84-2.05ZM124.74-15.8L124.74-15.8Q126.64-15.8 130.24-15.8L130.24-15.8 127.59-23 124.74-15.8ZM157.94 0.45L157.94 0.45Q154.09 0.55 150.99-0.75 147.89-2.05 146.09-4.55 144.29-7.05 144.29-10.35L144.29-10.35Q144.29-12.35 145.44-13.48 146.59-14.6 148.04-14.6L148.04-14.6Q149.49-14.6 150.39-13.58 151.29-12.55 151.29-11.3L151.29-11.3Q151.29-10.05 151.44-9.22 151.59-8.4 152.19-7.7L152.19-7.7Q153.34-6.3 158.04-6.3L158.04-6.3Q160.59-6.3 162.39-7.35 164.19-8.4 164.19-10.35L164.19-10.35Q164.19-11.65 162.09-12.85L162.09-12.85Q160.64-13.65 155.64-15.35L155.64-15.35Q150.19-17.15 147.44-19.53 144.69-21.9 144.69-26L144.69-26Q144.69-29.15 146.49-31.5 148.29-33.85 151.22-35.1 154.14-36.35 157.44-36.35L157.44-36.35Q160.84-36.45 163.99-35.25 167.14-34.05 169.06-31.83 170.99-29.6 170.99-26.8L170.99-26.8Q170.99-25.3 169.89-24.23 168.79-23.15 167.34-23.15L167.34-23.15Q166.34-23.15 165.39-23.75 164.44-24.35 164.19-25.25L164.19-25.25Q163.89-26.45 163.31-27.1 162.74-27.75 161.79-28.3L161.79-28.3Q160.54-29 159.54-29.3 158.54-29.6 156.69-29.6L156.69-29.6Q154.49-29.6 153.06-28.78 151.64-27.95 151.64-26.65L151.64-26.65Q151.64-25 153.27-23.95 154.89-22.9 157.84-21.95L157.84-21.95Q163.54-20.05 165.44-19L165.44-19Q168.59-17.25 169.89-15.3 171.19-13.35 171.19-10.4L171.19-10.4Q171.19-7.25 169.29-4.78 167.39-2.3 164.31-0.93 161.24 0.45 157.94 0.45L157.94 0.45ZM189.44 0.45L189.44 0.45Q185.74 0.3 182.84-1.2 179.94-2.7 178.16-5.1 176.39-7.5 175.44-10.33 174.49-13.15 174.44-16.2L174.44-16.2Q174.34-19.6 175.09-22.55 175.84-25.5 177.31-28.18 178.79-30.85 181.29-32.93 183.79-35 186.94-35.9L186.94-35.9Q188.19-36.2 189.79-36.2L189.79-36.2 190.84-36.2Q191.64-36.2 191.99-36.15 192.34-36.1 192.74-36.1L192.74-36.1Q194.34-36.05 195.31-35.95 196.29-35.85 197.89-35.3 199.49-34.75 201.04-33.7L201.04-33.7Q204.54-31.3 206.21-27.65 207.89-24 207.84-20.08 207.79-16.15 206.49-12.55L206.49-12.55Q205.54-9.95 203.96-7.63 202.39-5.3 200.24-3.43 198.09-1.55 195.29-0.5 192.49 0.55 189.44 0.45L189.44 0.45ZM189.74-6.4L189.74-6.4Q192.89-6.3 195.66-8.75 198.44-11.2 199.84-14.95L199.84-14.95Q201.39-19.15 200.56-22.55 199.74-25.95 197.14-27.75L197.14-27.75Q196.49-28.2 196.06-28.43 195.64-28.65 195.06-28.85 194.49-29.05 193.89-29.1 193.29-29.15 192.94-29.15 192.59-29.15 192.04-29.2L192.04-29.2Q191.49-29.25 191.24-29.33 190.99-29.4 190.29-29.4L190.29-29.4Q189.64-29.5 188.94-29.25L188.94-29.25Q185.39-27.95 183.36-24.58 181.34-21.2 181.44-16.45L181.44-16.45Q181.54-12.2 183.74-9.35 185.94-6.5 189.74-6.4L189.74-6.4ZM213.49-3.5L213.49-3.5Q213.49-4.55 213.51-10.43 213.53-16.3 213.51-18.45 213.49-20.6 213.41-24.78 213.34-28.95 213.19-32.25L213.19-32.25Q213.13-33.7 214.11-34.75 215.09-35.8 216.53-35.9L216.53-35.9 216.78-35.9Q223.69-36 235.38-35.9L235.38-35.9Q236.78-35.9 237.84-34.85L237.84-34.85Q238.84-33.8 238.84-32.38 238.84-30.95 237.78-29.93 236.74-28.9 235.28-28.9L235.28-28.9Q225.99-29 220.28-28.95L220.28-28.95Q220.38-25.75 220.44-22.25L220.44-22.25Q227.49-22.25 233.44-22.4L233.44-22.4Q234.88-22.4 235.94-21.4 236.99-20.4 237.01-18.98 237.03-17.55 236.03-16.5 235.03-15.45 233.63-15.4L233.63-15.4Q227.63-15.3 220.49-15.25L220.49-15.25 220.49-3.5Q220.49-2.05 219.46-1.03 218.44 0 216.99 0 215.53 0 214.51-1.03 213.49-2.05 213.49-3.5L213.49-3.5ZM257.13-3.45L257.13-3.45Q257.08-2 256.06-1 255.03 0 253.58-0.03 252.13-0.05 251.13-1.07 250.13-2.1 250.13-3.55L250.13-3.55Q250.18-5.1 250.08-17.7L250.08-17.7Q250.03-24.45 250.28-29L250.28-29Q246.28-29 243.53-28.95L243.53-28.95Q242.08-28.95 241.06-29.95 240.03-30.95 240.01-32.4 239.98-33.85 240.98-34.88 241.98-35.9 243.43-35.95L243.43-35.95Q246.58-36 253.78-36.02 260.98-36.05 264.13-36.05L264.13-36.05Q265.58-36.05 266.63-35.05 267.68-34.05 267.71-32.63 267.73-31.2 266.73-30.13 265.73-29.05 264.33-29.05L264.33-29.05Q261.18-29.05 257.28-29L257.28-29Q257.03-24.65 257.08-17.75L257.08-17.75Q257.18-5 257.13-3.45L257.13-3.45Z" opacity="1" transform="matrix(1,0,0,1,0,0)" fill="#0718c4" class="undefined-text-0" data-fill-palette-color="primary" id="text-0"></path></svg></g></svg></g></svg></g></svg></g><g><svg viewBox="0 0 130.13205734321946 130.13205734321946" height="130.13205734321946" width="130.13205734321946"><g><svg></svg></g><g id="icon-0"><svg viewBox="0 0 130.13205734321946 130.13205734321946" height="130.13205734321946" width="130.13205734321946"><g><path d="M0 65.066c0-35.935 29.131-65.066 65.066-65.066 35.935 0 65.066 29.131 65.066 65.066 0 35.935-29.131 65.066-65.066 65.066-35.935 0-65.066-29.131-65.066-65.066zM65.066 125.159c33.188 0 60.093-26.904 60.093-60.093 0-33.188-26.904-60.093-60.093-60.093-33.188 0-60.093 26.904-60.093 60.093 0 33.188 26.904 60.093 60.093 60.093z" data-fill-palette-color="accent" fill="#0718c4" stroke="transparent"></path></g><g transform="matrix(1,0,0,1,31.160023475020388,31.215991081568525)"><svg viewBox="0 0 67.81201039317868 67.70007518008241" height="67.70007518008241" width="67.81201039317868"><g><svg xmlns="http://www.w3.org/2000/svg" xmlns:xlink="http://www.w3.org/1999/xlink" version="1.1" x="0" y="0" viewBox="0 0.20499849319458008 99.95999908447266 99.79499816894531" enable-background="new 0 0 100 100" xml:space="preserve" height="67.70007518008241" width="67.81201039317868" class="icon-c-0" data-fill-palette-color="accent" id="c-0"><g fill="#0718c4" data-fill-palette-color="accent"><circle cx="49.98" cy="50.02" r="8.307" fill="#0718c4" data-fill-palette-color="accent"></circle><path d="M57.492 7.246c0 3.889-3.152 26.404-7.041 26.404-3.888 0-7.041-22.516-7.041-26.404s3.153-7.041 7.041-7.041C54.34 0.205 57.492 3.357 57.492 7.246z" fill="#0718c4" data-fill-palette-color="accent"></path><path d="M43.41 92.958c0-3.889 3.153-26.403 7.041-26.403 3.889 0 7.041 22.515 7.041 26.403S54.34 100 50.451 100C46.563 100 43.41 96.847 43.41 92.958z" fill="#0718c4" data-fill-palette-color="accent"></path><path d="M85.757 24.872c-2.791 2.707-21.142 16.131-23.849 13.341-2.708-2.79 11.248-20.736 14.038-23.445 2.79-2.707 7.249-2.643 9.956 0.148C88.612 17.705 88.546 22.163 85.757 24.872z" fill="#0718c4" data-fill-palette-color="accent"></path><path d="M14.773 75.181c2.79-2.708 21.14-16.129 23.849-13.342 2.707 2.792-11.249 20.736-14.039 23.445-2.789 2.71-7.247 2.645-9.955-0.146C11.919 82.348 11.985 77.892 14.773 75.181z" fill="#0718c4" data-fill-palette-color="accent"></path><path d="M74.163 86.315c-2.63-2.866-15.548-21.574-12.685-24.207C64.342 59.479 81.9 73.92 84.53 76.785c2.633 2.861 2.445 7.316-0.416 9.947C81.25 89.364 76.797 89.177 74.163 86.315z" fill="#0718c4" data-fill-palette-color="accent"></path><path d="M24.717 14.668c2.716 2.781 16.189 21.094 13.407 23.809-2.781 2.717-20.767-11.188-23.483-13.973-2.717-2.779-2.664-7.239 0.12-9.957C17.542 11.832 22.002 11.885 24.717 14.668z" fill="#0718c4" data-fill-palette-color="accent"></path><path d="M7.041 42.756c3.89 0 26.403 3.154 26.403 7.042 0 3.889-22.514 7.042-26.403 7.042C3.153 56.84 0 53.687 0 49.798 0 45.91 3.153 42.756 7.041 42.756z" fill="#0718c4" data-fill-palette-color="accent"></path><path d="M92.918 57.059c-3.889 0-26.402-3.15-26.402-7.039s22.514-7.041 26.402-7.041c3.89 0 7.042 3.152 7.042 7.041S96.808 57.059 92.918 57.059z" fill="#0718c4" data-fill-palette-color="accent"></path></g></svg></g></svg></g></svg></g></svg></g></svg></g><defs></defs></svg><rect width="395.5199999999999" height="93.2948141055911" fill="none" stroke="none" visibility="hidden"></rect></g></svg>